<svg width="442" height="1426" viewBox="0 0 442 1426" fill="none" xmlns="http://www.w3.org/2000/svg">
<path d="M445.907 12.0379C402.907 11.3713 311.207 19.2379 288.407 56.0379C259.907 102.038 285.407 130.038 241.907 160.038C198.407 190.038 133.907 174.538 98.9068 257.038C63.9068 339.538 112.907 372.038 88.4068 406.538C63.9068 441.038 26.4067 476.038 36.9067 525.038C47.4067 574.038 43.4767 575.772 27.9067 596.038C-3.59363 637.038 -12.0933 702.538 27.9067 750.538C57.6064 786.178 247.407 878.038 212.407 964.538C177.407 1051.04 213.907 1125.04 225.407 1144.04C236.907 1163.04 291.979 1216.12 363.407 1239.04C430.407 1260.54 408.713 1320.21 410.907 1346.54C413.407 1376.54 432.907 1388.54 448.407 1399.04" stroke="#C21615"/>
<path d="M456.813 12.0379C413.813 11.3713 322.113 19.2379 299.313 56.0379C270.813 102.038 296.313 130.038 252.813 160.038C209.313 190.038 144.813 174.538 109.813 257.038C74.813 339.538 123.813 372.038 99.313 406.538C74.813 441.038 37.313 476.038 47.813 525.038C58.313 574.038 54.383 575.772 38.8129 596.038C7.31262 637.038 -1.1871 702.538 38.8129 750.538C68.5126 786.178 258.313 878.038 223.313 964.538C188.313 1051.04 224.813 1125.04 236.313 1144.04C247.813 1163.04 302.885 1216.12 374.313 1239.04C441.313 1260.54 419.619 1320.21 421.813 1346.54C424.313 1376.54 443.813 1388.54 459.313 1399.04" stroke="#C21615"/>
<path d="M466.813 12.0379C423.813 11.3713 332.113 19.2379 309.313 56.0379C280.813 102.038 306.313 130.038 262.813 160.038C219.313 190.038 154.813 174.538 119.813 257.038C84.813 339.538 133.813 372.038 109.313 406.538C84.813 441.038 47.313 476.038 57.813 525.038C68.313 574.038 64.383 575.772 48.8129 596.038C17.3126 637.038 8.8129 702.538 48.8129 750.538C78.5126 786.178 268.313 878.038 233.313 964.538C198.313 1051.04 234.813 1125.04 246.313 1144.04C257.813 1163.04 312.885 1216.12 384.313 1239.04C451.313 1260.54 429.619 1320.21 431.813 1346.54C434.313 1376.54 453.813 1388.54 469.313 1399.04" stroke="#C21615"/>
<path d="M478.813 12.0379C435.813 11.3713 344.113 19.2379 321.313 56.0379C292.813 102.038 318.313 130.038 274.813 160.038C231.313 190.038 166.813 174.538 131.813 257.038C96.813 339.538 145.813 372.038 121.313 406.538C96.813 441.038 59.313 476.038 69.813 525.038C80.313 574.038 76.383 575.772 60.8129 596.038C29.3126 637.038 20.8129 702.538 60.8129 750.538C90.5126 786.178 280.313 878.038 245.313 964.538C210.313 1051.04 246.813 1125.04 258.313 1144.04C269.813 1163.04 324.885 1216.12 396.313 1239.04C463.313 1260.54 441.619 1320.21 443.813 1346.54C446.313 1376.54 465.813 1388.54 481.313 1399.04" stroke="#C21615"/>
<path d="M489.813 9.03792C446.813 8.37126 355.113 16.2379 332.313 53.0379C303.813 99.0379 329.313 127.038 285.813 157.038C242.313 187.038 177.813 171.538 142.813 254.038C107.813 336.538 156.813 369.038 132.313 403.538C107.813 438.038 70.313 473.038 80.813 522.038C91.313 571.038 87.383 572.772 71.8129 593.038C40.3126 634.038 31.8129 699.538 71.8129 747.538C101.513 783.178 291.313 875.038 256.313 961.538C221.313 1048.04 257.813 1122.04 269.313 1141.04C280.813 1160.04 335.885 1213.12 407.313 1236.04C474.313 1257.54 452.619 1317.21 454.813 1343.54C457.313 1373.54 476.813 1385.54 492.313 1396.04" stroke="#C21615"/>
<path d="M502.813 5.03792C459.813 4.37126 368.113 12.2379 345.313 49.0379C316.813 95.0379 342.313 123.038 298.813 153.038C255.313 183.038 190.813 167.538 155.813 250.038C120.813 332.538 169.813 365.038 145.313 399.538C120.813 434.038 83.313 469.038 93.813 518.038C104.313 567.038 100.383 568.772 84.8129 589.038C53.3126 630.038 44.8129 695.538 84.8129 743.538C114.513 779.178 304.313 871.038 269.313 957.538C234.313 1044.04 270.813 1118.04 282.313 1137.04C293.813 1156.04 348.885 1209.12 420.313 1232.04C487.313 1253.54 465.619 1313.21 467.813 1339.54C470.313 1369.54 489.813 1381.54 505.313 1392.04" stroke="#C21615"/>
<path d="M514.813 1.03792C471.813 0.371258 380.113 8.23793 357.313 45.0379C328.813 91.0379 354.313 119.038 310.813 149.038C267.313 179.038 202.813 163.538 167.813 246.038C132.813 328.538 181.813 361.038 157.313 395.538C132.813 430.038 95.313 465.038 105.813 514.038C116.313 563.038 112.383 564.772 96.8129 585.038C65.3126 626.038 56.8129 691.538 96.8129 739.538C126.513 775.178 316.313 867.038 281.313 953.538C246.313 1040.04 282.813 1114.04 294.313 1133.04C305.813 1152.04 360.885 1205.12 432.313 1228.04C499.313 1249.54 477.619 1309.21 479.813 1335.54C482.313 1365.54 501.813 1377.54 517.313 1388.04" stroke="#C21615"/>
<path d="M525.813 1.03792C482.813 0.371258 391.113 8.23793 368.313 45.0379C339.813 91.0379 365.313 119.038 321.813 149.038C278.313 179.038 213.813 163.538 178.813 246.038C143.813 328.538 192.813 361.038 168.313 395.538C143.813 430.038 106.313 465.038 116.813 514.038C127.313 563.038 123.383 564.772 107.813 585.038C76.3126 626.038 67.8129 691.538 107.813 739.538C137.513 775.178 327.313 867.038 292.313 953.538C257.313 1040.04 293.813 1114.04 305.313 1133.04C316.813 1152.04 371.885 1205.12 443.313 1228.04C510.313 1249.54 488.619 1309.21 490.813 1335.54C493.313 1365.54 512.813 1377.54 528.313 1388.04" stroke="#C21615"/>
<path d="M537.907 1.03792C494.907 0.371258 403.207 8.23793 380.407 45.0379C351.907 91.0379 377.407 119.038 333.907 149.038C290.407 179.038 225.907 163.538 190.907 246.038C155.907 328.538 204.907 361.038 180.407 395.538C155.907 430.038 118.407 465.038 128.907 514.038C139.407 563.038 135.477 564.772 119.907 585.038C88.4064 626.038 79.9067 691.538 119.907 739.538C149.606 775.178 339.407 867.038 304.407 953.538C269.407 1040.04 305.907 1114.04 317.407 1133.04C328.907 1152.04 383.979 1205.12 455.407 1228.04C522.407 1249.54 500.713 1309.21 502.907 1335.54C505.407 1365.54 524.907 1377.54 540.407 1388.04" stroke="#C21615"/>
<path d="M547.907 5.03792C504.907 4.37126 413.207 12.2379 390.407 49.0379C361.907 95.0379 387.407 123.038 343.907 153.038C300.407 183.038 235.907 167.538 200.907 250.038C165.907 332.538 214.907 365.038 190.407 399.538C165.907 434.038 128.407 469.038 138.907 518.038C149.407 567.038 145.477 568.772 129.907 589.038C98.4064 630.038 89.9067 695.538 129.907 743.538C159.606 779.178 349.407 871.038 314.407 957.538C279.407 1044.04 315.907 1118.04 327.407 1137.04C338.907 1156.04 393.979 1209.12 465.407 1232.04C532.407 1253.54 510.713 1313.21 512.907 1339.54C515.407 1369.54 534.907 1381.54 550.407 1392.04" stroke="#C21615"/>
<path d="M557.907 12.0379C514.907 11.3713 423.207 19.2379 400.407 56.0379C371.907 102.038 397.407 130.038 353.907 160.038C310.407 190.038 245.907 174.538 210.907 257.038C175.907 339.538 224.907 372.038 200.407 406.538C175.907 441.038 138.407 476.038 148.907 525.038C159.407 574.038 155.477 575.772 139.907 596.038C108.406 637.038 99.9067 702.538 139.907 750.538C169.606 786.178 359.407 878.038 324.407 964.538C289.407 1051.04 325.907 1125.04 337.407 1144.04C348.907 1163.04 403.979 1216.12 475.407 1239.04C542.407 1260.54 520.713 1320.21 522.907 1346.54C525.407 1376.54 544.907 1388.54 560.407 1399.04" stroke="#C21615"/>
<path d="M567.907 21.0379C524.907 20.3713 433.207 28.2379 410.407 65.0379C381.907 111.038 407.407 139.038 363.907 169.038C320.407 199.038 255.907 183.538 220.907 266.038C185.907 348.538 234.907 381.038 210.407 415.538C185.907 450.038 148.407 485.038 158.907 534.038C169.407 583.038 165.477 584.772 149.907 605.038C118.406 646.038 109.907 711.538 149.907 759.538C179.606 795.178 369.407 887.038 334.407 973.538C299.407 1060.04 335.907 1134.04 347.407 1153.04C358.907 1172.04 413.979 1225.12 485.407 1248.04C552.407 1269.54 530.713 1329.21 532.907 1355.54C535.407 1385.54 554.907 1397.54 570.407 1408.04" stroke="#C21615"/>
<path d="M579.907 29.0379C536.907 28.3713 445.207 36.2379 422.407 73.0379C393.907 119.038 419.407 147.038 375.907 177.038C332.407 207.038 267.907 191.538 232.907 274.038C197.907 356.538 246.907 389.038 222.407 423.538C197.907 458.038 160.407 493.038 170.907 542.038C181.407 591.038 177.477 592.772 161.907 613.038C130.406 654.038 121.907 719.538 161.907 767.538C191.606 803.178 381.407 895.038 346.407 981.538C311.407 1068.04 347.907 1142.04 359.407 1161.04C370.907 1180.04 425.979 1233.12 497.407 1256.04C564.407 1277.54 542.713 1337.21 544.907 1363.54C547.407 1393.54 566.907 1405.54 582.407 1416.04" stroke="#C21615"/>
<path d="M585.907 33.0379C542.907 32.3713 451.207 40.2379 428.407 77.0379C399.907 123.038 425.407 151.038 381.907 181.038C338.407 211.038 273.907 195.538 238.907 278.038C203.907 360.538 252.907 393.038 228.407 427.538C203.907 462.038 166.407 497.038 176.907 546.038C187.407 595.038 183.477 596.772 167.907 617.038C136.406 658.038 127.907 723.538 167.907 771.538C197.606 807.178 387.407 899.038 352.407 985.538C317.407 1072.04 353.907 1146.04 365.407 1165.04C376.907 1184.04 431.979 1237.12 503.407 1260.04C570.407 1281.54 548.713 1341.21 550.907 1367.54C553.407 1397.54 572.907 1409.54 588.407 1420.04" stroke="#C21615"/>
<path d="M598.907 32.0379C555.907 31.3713 464.207 39.2379 441.407 76.0379C412.907 122.038 438.407 150.038 394.907 180.038C351.407 210.038 286.907 194.538 251.907 277.038C216.907 359.538 265.907 392.038 241.407 426.538C216.907 461.038 179.407 496.038 189.907 545.038C200.407 594.038 196.477 595.772 180.907 616.038C149.406 657.038 140.907 722.538 180.907 770.538C210.606 806.178 400.407 898.038 365.407 984.538C330.407 1071.04 366.907 1145.04 378.407 1164.04C389.907 1183.04 444.979 1236.12 516.407 1259.04C583.407 1280.54 561.713 1340.21 563.907 1366.54C566.407 1396.54 585.907 1408.54 601.407 1419.04" stroke="#C21615"/>
<path d="M611.907 27.0379C568.907 26.3713 477.207 34.2379 454.407 71.0379C425.907 117.038 451.407 145.038 407.907 175.038C364.407 205.038 299.907 189.538 264.907 272.038C229.907 354.538 278.907 387.038 254.407 421.538C229.907 456.038 192.407 491.038 202.907 540.038C213.407 589.038 209.477 590.772 193.907 611.038C162.406 652.038 153.907 717.538 193.907 765.538C223.606 801.178 413.407 893.038 378.407 979.538C343.407 1066.04 379.907 1140.04 391.407 1159.04C402.907 1178.04 457.979 1231.12 529.407 1254.04C596.407 1275.54 574.713 1335.21 576.907 1361.54C579.407 1391.54 598.907 1403.54 614.407 1414.04" stroke="#C21615"/>
<path d="M623.907 25.0379C580.907 24.3713 489.207 32.2379 466.407 69.0379C437.907 115.038 463.407 143.038 419.907 173.038C376.407 203.038 311.907 187.538 276.907 270.038C241.907 352.538 290.907 385.038 266.407 419.538C241.907 454.038 204.407 489.038 214.907 538.038C225.407 587.038 221.477 588.772 205.907 609.038C174.406 650.038 165.907 715.538 205.907 763.538C235.606 799.178 425.407 891.038 390.407 977.538C355.407 1064.04 391.907 1138.04 403.407 1157.04C414.907 1176.04 469.979 1229.12 541.407 1252.04C608.407 1273.54 586.713 1333.21 588.907 1359.54C591.407 1389.54 610.907 1401.54 626.407 1412.04" stroke="#C21615"/>
<path d="M638.907 19.0379C595.907 18.3713 504.207 26.2379 481.407 63.0379C452.907 109.038 478.407 137.038 434.907 167.038C391.407 197.038 326.907 181.538 291.907 264.038C256.907 346.538 305.907 379.038 281.407 413.538C256.907 448.038 219.407 483.038 229.907 532.038C240.407 581.038 236.477 582.772 220.907 603.038C189.406 644.038 180.907 709.538 220.907 757.538C250.606 793.178 440.407 885.038 405.407 971.538C370.407 1058.04 406.907 1132.04 418.407 1151.04C429.907 1170.04 484.979 1223.12 556.407 1246.04C623.407 1267.54 601.713 1327.21 603.907 1353.54C606.407 1383.54 625.907 1395.54 641.407 1406.04" stroke="#C21615"/>
<path d="M652.907 19.0379C609.907 18.3713 518.207 26.2379 495.407 63.0379C466.907 109.038 492.407 137.038 448.907 167.038C405.407 197.038 340.907 181.538 305.907 264.038C270.907 346.538 319.907 379.038 295.407 413.538C270.907 448.038 233.407 483.038 243.907 532.038C254.407 581.038 250.477 582.772 234.907 603.038C203.406 644.038 194.907 709.538 234.907 757.538C264.606 793.178 454.407 885.038 419.407 971.538C384.407 1058.04 420.907 1132.04 432.407 1151.04C443.907 1170.04 498.979 1223.12 570.407 1246.04C637.407 1267.54 615.713 1327.21 617.907 1353.54C620.407 1383.54 639.907 1395.54 655.407 1406.04" stroke="#C21615"/>
<path d="M669.907 13.0379C626.907 12.3713 535.207 20.2379 512.407 57.0379C483.907 103.038 509.407 131.038 465.907 161.038C422.407 191.038 357.907 175.538 322.907 258.038C287.907 340.538 336.907 373.038 312.407 407.538C287.907 442.038 250.407 477.038 260.907 526.038C271.407 575.038 267.477 576.772 251.907 597.038C220.406 638.038 211.907 703.538 251.907 751.538C281.606 787.178 471.407 879.038 436.407 965.538C401.407 1052.04 437.907 1126.04 449.407 1145.04C460.907 1164.04 515.979 1217.12 587.407 1240.04C654.407 1261.54 632.713 1321.21 634.907 1347.54C637.407 1377.54 656.907 1389.54 672.407 1400.04" stroke="#C21615"/>
<path d="M682.907 11.0379C639.907 10.3713 548.207 18.2379 525.407 55.0379C496.907 101.038 522.407 129.038 478.907 159.038C435.407 189.038 370.907 173.538 335.907 256.038C300.907 338.538 349.907 371.038 325.407 405.538C300.907 440.038 263.407 475.038 273.907 524.038C284.407 573.038 280.477 574.772 264.907 595.038C233.406 636.038 224.907 701.538 264.907 749.538C294.606 785.178 484.407 877.038 449.407 963.538C414.407 1050.04 450.907 1124.04 462.407 1143.04C473.907 1162.04 528.979 1215.12 600.407 1238.04C667.407 1259.54 645.713 1319.21 647.907 1345.54C650.407 1375.54 669.907 1387.54 685.407 1398.04" stroke="#C21615"/>
<path d="M698.907 7.03792C655.907 6.37126 564.207 14.2379 541.407 51.0379C512.907 97.0379 538.407 125.038 494.907 155.038C451.407 185.038 386.907 169.538 351.907 252.038C316.907 334.538 365.907 367.038 341.407 401.538C316.907 436.038 279.407 471.038 289.907 520.038C300.407 569.038 296.477 570.772 280.907 591.038C249.406 632.038 240.907 697.538 280.907 745.538C310.606 781.178 500.407 873.038 465.407 959.538C430.407 1046.04 466.907 1120.04 478.407 1139.04C489.907 1158.04 544.979 1211.12 616.407 1234.04C683.407 1255.54 661.713 1315.21 663.907 1341.54C666.407 1371.54 685.907 1383.54 701.407 1394.04" stroke="#C21615"/>
<path d="M708.907 14.0379C665.907 13.3713 574.207 21.2379 551.407 58.0379C522.907 104.038 548.407 132.038 504.907 162.038C461.407 192.038 396.907 176.538 361.907 259.038C326.907 341.538 375.907 374.038 351.407 408.538C326.907 443.038 289.407 478.038 299.907 527.038C310.407 576.038 306.477 577.772 290.907 598.038C259.406 639.038 250.907 704.538 290.907 752.538C320.606 788.178 510.407 880.038 475.407 966.538C440.407 1053.04 476.907 1127.04 488.407 1146.04C499.907 1165.04 554.979 1218.12 626.407 1241.04C693.407 1262.54 671.713 1322.21 673.907 1348.54C676.407 1378.54 695.907 1390.54 711.407 1401.04" stroke="#C21615"/>
<path d="M718.907 18.0379C675.907 17.3713 584.207 25.2379 561.407 62.0379C532.907 108.038 558.407 136.038 514.907 166.038C471.407 196.038 406.907 180.538 371.907 263.038C336.907 345.538 385.907 378.038 361.407 412.538C336.907 447.038 299.407 482.038 309.907 531.038C320.407 580.038 316.477 581.772 300.907 602.038C269.406 643.038 260.907 708.538 300.907 756.538C330.606 792.178 520.407 884.038 485.407 970.538C450.407 1057.04 486.907 1131.04 498.407 1150.04C509.907 1169.04 564.979 1222.12 636.407 1245.04C703.407 1266.54 681.713 1326.21 683.907 1352.54C686.407 1382.54 705.907 1394.54 721.407 1405.04" stroke="#C21615"/>
<path d="M729.907 21.0379C686.907 20.3713 595.207 28.2379 572.407 65.0379C543.907 111.038 569.407 139.038 525.907 169.038C482.407 199.038 417.907 183.538 382.907 266.038C347.907 348.538 396.907 381.038 372.407 415.538C347.907 450.038 310.407 485.038 320.907 534.038C331.407 583.038 327.477 584.772 311.907 605.038C280.406 646.038 271.907 711.538 311.907 759.538C341.606 795.178 531.407 887.038 496.407 973.538C461.407 1060.04 497.907 1134.04 509.407 1153.04C520.907 1172.04 575.979 1225.12 647.407 1248.04C714.407 1269.54 692.713 1329.21 694.907 1355.54C697.407 1385.54 716.907 1397.54 732.407 1408.04" stroke="#C21615"/>
<path d="M739.907 27.0379C696.907 26.3713 605.207 34.2379 582.407 71.0379C553.907 117.038 579.407 145.038 535.907 175.038C492.407 205.038 427.907 189.538 392.907 272.038C357.907 354.538 406.907 387.038 382.407 421.538C357.907 456.038 320.407 491.038 330.907 540.038C341.407 589.038 337.477 590.772 321.907 611.038C290.406 652.038 281.907 717.538 321.907 765.538C351.606 801.178 541.407 893.038 506.407 979.538C471.407 1066.04 507.907 1140.04 519.407 1159.04C530.907 1178.04 585.979 1231.12 657.407 1254.04C724.407 1275.54 702.713 1335.21 704.907 1361.54C707.407 1391.54 726.907 1403.54 742.407 1414.04" stroke="#C21615"/>
<path d="M750.907 34.0379C707.907 33.3713 616.207 41.2379 593.407 78.0379C564.907 124.038 590.407 152.038 546.907 182.038C503.407 212.038 438.907 196.538 403.907 279.038C368.907 361.538 417.907 394.038 393.407 428.538C368.907 463.038 331.407 498.038 341.907 547.038C352.407 596.038 348.477 597.772 332.907 618.038C301.406 659.038 292.907 724.538 332.907 772.538C362.606 808.178 552.407 900.038 517.407 986.538C482.407 1073.04 518.907 1147.04 530.407 1166.04C541.907 1185.04 596.979 1238.12 668.407 1261.04C735.407 1282.54 713.713 1342.21 715.907 1368.54C718.407 1398.54 737.907 1410.54 753.407 1421.04" stroke="#C21615"/>
<path d="M760.907 38.0379C717.907 37.3713 626.207 45.2379 603.407 82.0379C574.907 128.038 600.407 156.038 556.907 186.038C513.407 216.038 448.907 200.538 413.907 283.038C378.907 365.538 427.907 398.038 403.407 432.538C378.907 467.038 341.407 502.038 351.907 551.038C362.407 600.038 358.477 601.772 342.907 622.038C311.406 663.038 302.907 728.538 342.907 776.538C372.606 812.178 562.407 904.038 527.407 990.538C492.407 1077.04 528.907 1151.04 540.407 1170.04C551.907 1189.04 606.979 1242.12 678.407 1265.04C745.407 1286.54 723.713 1346.21 725.907 1372.54C728.407 1402.54 747.907 1414.54 763.407 1425.04" stroke="#C21615"/>
</svg>
